<?xml version="1.0" encoding="UTF-8" standalone="no"?>
<!-- Created with Inkscape (http://www.inkscape.org/) -->

<svg
   xmlns:dc="http://purl.org/dc/elements/1.1/"
   xmlns:cc="http://creativecommons.org/ns#"
   xmlns:rdf="http://www.w3.org/1999/02/22-rdf-syntax-ns#"
   xmlns:svg="http://www.w3.org/2000/svg"
   xmlns="http://www.w3.org/2000/svg"
   xmlns:sodipodi="http://sodipodi.sourceforge.net/DTD/sodipodi-0.dtd"
   xmlns:inkscape="http://www.inkscape.org/namespaces/inkscape"
   width="744.09448"
   height="314.15744"
   id="svg5994"
   version="1.1"
   inkscape:version="0.48.2 r9819"
   sodipodi:docname="logo-lutece-fd-noir.svg">
  <defs
     id="defs5996" />
  <sodipodi:namedview
     id="base"
     pagecolor="#ffffff"
     bordercolor="#666666"
     borderopacity="1.0"
     inkscape:pageopacity="0.0"
     inkscape:pageshadow="2"
     inkscape:zoom="0.35"
     inkscape:cx="-119.38133"
     inkscape:cy="157.0787"
     inkscape:document-units="px"
     inkscape:current-layer="layer1"
     showgrid="false"
     inkscape:window-width="1280"
     inkscape:window-height="972"
     inkscape:window-x="1272"
     inkscape:window-y="-8"
     inkscape:window-maximized="1"
     fit-margin-top="0"
     fit-margin-left="0"
     fit-margin-right="0"
     fit-margin-bottom="0"
     inkscape:showpageshadow="false"
     showborder="false" />
  <metadata
     id="metadata5999">
    <rdf:RDF>
      <cc:Work
         rdf:about="">
        <dc:format>image/svg+xml</dc:format>
        <dc:type
           rdf:resource="http://purl.org/dc/dcmitype/StillImage" />
        <dc:title></dc:title>
      </cc:Work>
    </rdf:RDF>
  </metadata>
  <g
     inkscape:label="Calque 1"
     inkscape:groupmode="layer"
     id="layer1"
     transform="translate(-2.9527588,-375.28345)">
    <rect
       style="fill:#444444;fill-opacity:1"
       id="rect5858"
       width="744.09448"
       height="314.15744"
       x="2.9527588"
       y="375.28345" />
    <g
       id="g4442"
       transform="matrix(0.70272972,0,0,0.73348543,108.21798,211.13767)">
      <path
         id="path3104"
         style="fill:#f6974a;fill-opacity:1;fill-rule:nonzero;stroke:none"
         d="m 781.5119,393.1965 c 0,61.5662 -49.91,111.4787 -111.4813,111.4787 -61.5675,0 -111.4787,-49.9125 -111.4787,-111.4787 0,-61.57 49.9112,-111.4825 111.4787,-111.4825 61.5713,0 111.4813,49.9125 111.4813,111.4825"
         inkscape:connector-curvature="0" />
      <path
         id="path3108"
         style="fill:#f6974a;fill-opacity:1;fill-rule:nonzero;stroke:none"
         d="m 98.56872,393.1965 c 0,61.5662 -49.91,111.4787 -111.48125,111.4787 -61.5675,0 -111.47875,-49.9125 -111.47875,-111.4787 0,-61.57 49.91125,-111.4825 111.47875,-111.4825 61.57125,0 111.48125,49.9125 111.48125,111.4825"
         inkscape:connector-curvature="0" />
      <path
         id="path3112"
         style="fill:#6d84cb;fill-opacity:1;fill-rule:nonzero;stroke:none"
         d="m 435.3722,393.1965 c 0,61.5662 -49.9125,111.4787 -111.48251,111.4787 -61.56875,0 -111.47875,-49.9125 -111.47875,-111.4787 0,-61.57 49.91,-111.4825 111.47875,-111.4825 61.57001,0 111.48251,49.9125 111.48251,111.4825"
         inkscape:connector-curvature="0" />
      <path
         id="path3116"
         style="fill:#ffffff;fill-opacity:1;fill-rule:nonzero;stroke:none"
         d="m -34.41016,458.136 0,-127.9388 17.2625,0 0,111.9913 36.98,0 0,15.9475 -54.2425,0 z"
         inkscape:connector-curvature="0" />
      <path
         id="path3120"
         style="fill:#ffffff;fill-opacity:1;fill-rule:nonzero;stroke:none"
         d="m 122.41346,424.0491 0,-93.8525 17.00125,0 0,95.255 c 0,6.1337 1.37,10.66 4.11625,13.5837 2.745,2.92 6.9525,4.38 12.62,4.38 5.60875,0 9.78375,-1.46 12.53125,-4.38 2.745,-2.9237 4.11875,-7.45 4.11875,-13.5837 l 0,-95.255 17.08625,0 0,93.8525 c 0,12.3262 -2.7025,21.3537 -8.105,27.0762 -5.405,5.7263 -13.94875,8.5875 -25.63125,8.5875 -11.62625,0 -20.155,-2.8475 -25.5875,-8.5437 -5.435,-5.6938 -8.15,-14.7338 -8.15,-27.12"
         inkscape:connector-curvature="0" />
      <path
         id="path3124"
         style="fill:#ffffff;fill-opacity:1;fill-rule:nonzero;stroke:none"
         d="m 312.09347,458.136 0,-111.9888 -23.7475,0 0,-15.95 64.845,0 0,15.95 -23.74625,0 0,111.9888 -17.35125,0 z"
         inkscape:connector-curvature="0" />
      <path
         id="path3128"
         style="fill:#ffffff;fill-opacity:1;fill-rule:nonzero;stroke:none"
         d="m 467.0726,458.136 0,-127.9388 51.1762,0 0,15.4225 -33.9137,0 0,38.0325 31.0212,0 0,15.2475 -31.0212,0 0,43.2888 33.9137,0 0,15.9475 -51.1762,0 z"
         inkscape:connector-curvature="0" />
      <path
         id="path3132"
         style="fill:#ffffff;fill-opacity:1;fill-rule:nonzero;stroke:none"
         d="m 697.5724,455.2438 c -1.4013,0.7638 -2.7613,1.3913 -4.0725,1.885 -1.3163,0.4975 -2.8525,0.98 -4.605,1.4475 -3.1525,0.7575 -6.25,1.1363 -9.2875,1.1363 -12.97,0 -22.725,-5.345 -29.2675,-16.035 -6.5438,-10.6913 -9.815,-26.815 -9.815,-48.3725 0,-21.9075 3.46,-38.5125 10.385,-49.8163 6.9212,-11.3037 17.1612,-16.9562 30.715,-16.9562 3.0937,0 5.8962,0.2925 8.4112,0.8762 2.7438,0.5263 5.2588,1.3738 7.5363,2.5413 l 0,16.3875 c -2.3388,-1.1675 -4.7025,-2.0738 -7.1,-2.7175 -0.875,-0.2325 -1.9275,-0.4375 -3.1525,-0.6138 -1.2263,-0.1737 -2.2775,-0.2625 -3.1538,-0.2625 -9.0562,0 -15.7187,4.0175 -19.98,12.0488 -4.2662,8.0337 -6.3962,20.8137 -6.3962,38.3387 0,16.3575 2,28.465 6,36.3213 4.0012,7.86 10.1775,11.7862 18.535,11.7862 2.3937,0 4.805,-0.3787 7.23,-1.1375 2.4212,-0.76 5.095,-1.985 8.0175,-3.6812 l 0,16.8237 z"
         inkscape:connector-curvature="0" />
      <path
         id="path3136"
         style="fill:#ffffff;fill-opacity:1;fill-rule:nonzero;stroke:none"
         d="m 816.5114,458.136 0,-127.9388 51.1762,0 0,15.4225 -33.9137,0 0,38.0325 31.0212,0 0,15.2475 -31.0212,0 0,43.2888 33.9137,0 0,15.9475 -51.1762,0 z"
         inkscape:connector-curvature="0" />
      <path
         id="path3140"
         style="fill:none;stroke:#ffffff;stroke-width:14.95499992;stroke-linecap:butt;stroke-linejoin:miter;stroke-miterlimit:10;stroke-opacity:1;stroke-dasharray:none"
         d="m -119.11554,521.7203 986.80254,0"
         inkscape:connector-curvature="0" />
      <path
         id="path3144"
         style="fill:#ffffff;fill-opacity:1;fill-rule:nonzero;stroke:none"
         d="m -71.27828,568.845 c 0,7.0887 0.57375,12.07 1.72125,14.9437 1.145,2.875 3.06,4.31 5.7425,4.31 2.6575,0 4.5325,-1.3662 5.6225,-4.1062 1.09,-2.735 1.635,-7.7863 1.635,-15.1475 0,-7.1788 -0.55,-12.17 -1.6525,-14.9763 -1.1025,-2.805 -2.99375,-4.2087 -5.67375,-4.2087 -2.65875,0 -4.5675,1.4187 -5.72625,4.26 -0.5225,1.385 -0.93125,3.3512 -1.225,5.895 -0.2975,2.5437 -0.44375,5.555 -0.44375,9.03 m -6.78125,0.1375 c 0,-9.0875 1.10625,-15.62 3.3225,-19.595 2.21375,-3.975 5.8325,-5.9638 10.85375,-5.9638 4.9525,0 8.5425,1.9763 10.76875,5.93 2.22625,3.9513 3.33875,10.4963 3.33875,19.6288 0,9.1112 -1.095,15.6312 -3.28875,19.56 -2.1925,3.9312 -5.7975,5.8962 -10.81875,5.8962 -5.02125,0 -8.64,-1.97 -10.85375,-5.915 -2.21625,-3.9387 -3.3225,-10.455 -3.3225,-19.5412"
         inkscape:connector-curvature="0" />
      <path
         id="path3148"
         style="fill:#ffffff;fill-opacity:1;fill-rule:nonzero;stroke:none"
         d="m -12.35766,565.915 2.48875,0 c 2.99875,0 5.13125,-0.6188 6.405,-1.8575 1.2725,-1.2375 1.91,-3.3213 1.91,-6.2538 0,-2.7937 -0.6775,-4.805 -2.0275,-6.0312 -1.3525,-1.2263 -3.60875,-1.84 -6.76625,-1.84 l -2.01,0 0,15.9825 z m -6.7125,27.91 0,-49.7538 8.1775,0 c 3.04375,0 5.40125,0.2088 7.07125,0.6288 1.66875,0.4187 3.12875,1.1387 4.37875,2.1587 1.4325,1.155 2.55625,2.7125 3.37375,4.6738 0.82,1.9612 1.2275,4.1312 1.2275,6.5087 0,4.5113 -1.325,7.9513 -3.97125,10.32 -2.64625,2.3675 -6.51375,3.5513 -11.60375,3.5513 l -1.225,0 -0.71625,0 0,21.9125 -6.7125,0 z"
         inkscape:connector-curvature="0" />
      <path
         id="path3152"
         style="fill:#ffffff;fill-opacity:1;fill-rule:nonzero;stroke:none"
         d="m 34.53259,593.825 0,-49.7538 19.90125,0 0,5.9975 -13.18875,0 0,14.79 12.065,0 0,5.9275 -12.065,0 0,16.8375 13.18875,0 0,6.2013 -19.90125,0 z"
         inkscape:connector-curvature="0" />
      <path
         id="path3156"
         style="fill:#ffffff;fill-opacity:1;fill-rule:nonzero;stroke:none"
         d="m 84.69459,593.825 0,-49.7538 6.21375,-0.01 13.1775,34.4938 0,-34.4888 6.37125,0 0,49.7538 -6.3025,0 -13.1225,-34.8288 0,34.8288 -6.3375,0 z"
         inkscape:connector-curvature="0" />
      <path
         id="path3160"
         style="fill:#ffffff;fill-opacity:1;fill-rule:nonzero;stroke:none"
         d="m 177.99996,585.1002 c 1.5225,0.9325 2.975,1.6425 4.36125,2.13 1.3875,0.4888 2.65875,0.7338 3.81875,0.7338 2.0425,0 3.6675,-0.5963 4.8725,-1.7913 1.2025,-1.19 1.80625,-2.7875 1.80625,-4.7862 0,-2.93 -2.305,-6.2825 -6.91875,-10.0525 l -1.2275,-1.0225 c -2.88375,-2.3863 -4.935,-4.635 -6.15,-6.7475 -1.215,-2.1125 -1.82375,-4.4525 -1.82375,-7.02 0,-3.725 1.1925,-6.845 3.57875,-9.355 2.385,-2.51 5.34,-3.765 8.86,-3.765 1.545,0 3.0375,0.1762 4.48125,0.5275 1.4425,0.3537 2.85625,0.9262 4.2425,1.7212 l 0,6.68 c -0.65875,-0.4562 -1.29,-0.8425 -1.89125,-1.1587 -0.60125,-0.3188 -1.2425,-0.6025 -1.925,-0.8538 -1.24875,-0.4537 -2.46375,-0.68 -3.64625,-0.68 -2.1125,0 -3.805,0.6188 -5.0775,1.8575 -1.2725,1.2375 -1.9075,2.8913 -1.9075,4.9588 0,2.8612 2.44125,6.2462 7.32625,10.155 l 1.0575,0.8175 c 2.86125,2.295 4.8775,4.5087 6.0475,6.6437 1.17,2.1375 1.755,4.545 1.755,7.2263 0,3.8375 -1.215,6.985 -3.6475,9.4387 -2.43,2.4538 -5.5425,3.6813 -9.33625,3.6813 -1.34,0 -2.74375,-0.2063 -4.20875,-0.6138 -1.465,-0.4087 -2.9475,-1.035 -4.4475,-1.8737 l 0,-6.8513 z"
         inkscape:connector-curvature="0" />
      <path
         id="path3164"
         style="fill:#ffffff;fill-opacity:1;fill-rule:nonzero;stroke:none"
         d="m 234.67171,568.845 c 0,7.0887 0.57375,12.07 1.72125,14.9437 1.145,2.875 3.06,4.31 5.7425,4.31 2.6575,0 4.5325,-1.3662 5.6225,-4.1062 1.09,-2.735 1.635,-7.7863 1.635,-15.1475 0,-7.1788 -0.55,-12.17 -1.6525,-14.9763 -1.1025,-2.805 -2.99375,-4.2087 -5.67375,-4.2087 -2.65875,0 -4.5675,1.4187 -5.72625,4.26 -0.5225,1.385 -0.9325,3.3512 -1.225,5.895 -0.2975,2.5437 -0.44375,5.555 -0.44375,9.03 m -6.78125,0.1375 c 0,-9.0875 1.10625,-15.62 3.3225,-19.595 2.21375,-3.975 5.8325,-5.9638 10.85375,-5.9638 4.9525,0 8.5425,1.9763 10.76875,5.93 2.22625,3.9513 3.33875,10.4963 3.33875,19.6288 0,9.1112 -1.095,15.6312 -3.28875,19.56 -2.1925,3.9312 -5.7975,5.8962 -10.81875,5.8962 -5.02125,0 -8.64,-1.97 -10.85375,-5.915 -2.21625,-3.9387 -3.3225,-10.455 -3.3225,-19.5412"
         inkscape:connector-curvature="0" />
      <path
         id="path3168"
         style="fill:#ffffff;fill-opacity:1;fill-rule:nonzero;stroke:none"
         d="m 286.47022,580.5681 0,-36.4975 6.61125,0 0,37.045 c 0,2.3837 0.53375,4.145 1.60125,5.2787 1.0675,1.1375 2.70375,1.7038 4.9075,1.7038 2.18,0 3.805,-0.5663 4.8725,-1.7038 1.0675,-1.1337 1.6025,-2.895 1.6025,-5.2787 l 0,-37.045 6.64375,0 0,36.4975 c 0,4.7962 -1.05,8.3037 -3.15125,10.5312 -2.10125,2.2263 -5.425,3.3388 -9.9675,3.3388 -4.5225,0 -7.83875,-1.1075 -9.95125,-3.3213 -2.11125,-2.2162 -3.16875,-5.7312 -3.16875,-10.5487"
         inkscape:connector-curvature="0" />
      <path
         id="path3172"
         style="fill:#ffffff;fill-opacity:1;fill-rule:nonzero;stroke:none"
         d="m 351.18299,565.7105 2.07875,0 c 2.72625,0 4.65125,-0.635 5.775,-1.9075 1.12625,-1.2738 1.6875,-3.5225 1.6875,-6.7488 0,-2.6337 -0.54375,-4.4812 -1.63375,-5.5362 -1.0925,-1.0588 -3.1025,-1.5863 -6.035,-1.5863 l -1.8725,0 0,15.7788 z m 0,3.8162 0,24.2975 -6.7125,0 0,-49.7537 8.10875,0 c 5.385,0 9.21875,0.995 11.50125,2.9825 2.28375,1.9875 3.42625,5.3212 3.42625,10.0012 0,3.6588 -0.77875,6.5138 -2.33375,8.57 -1.55875,2.0575 -3.9025,3.2888 -7.0375,3.6988 l 11.825,24.5012 -7.16,-0.014 -11.385,-24.2975 -0.2325,0.014 z"
         inkscape:connector-curvature="0" />
      <path
         id="path3176"
         style="fill:#ffffff;fill-opacity:1;fill-rule:nonzero;stroke:none"
         d="m 418.6566,592.7 c -0.545,0.295 -1.0725,0.5412 -1.5825,0.7337 -0.5125,0.1913 -1.1088,0.38 -1.79,0.5613 -1.2263,0.295 -2.4325,0.4425 -3.6125,0.4425 -5.0438,0 -8.8375,-2.0763 -11.3825,-6.2363 -2.5463,-4.1575 -3.8163,-10.4262 -3.8163,-18.81 0,-8.5212 1.345,-14.9787 4.0375,-19.375 2.6925,-4.395 6.675,-6.5937 11.945,-6.5937 1.2038,0 2.2938,0.115 3.2713,0.3412 1.0662,0.2038 2.0437,0.535 2.93,0.9888 l 0,6.3712 c -0.9088,-0.4525 -1.8288,-0.805 -2.7588,-1.055 -0.3412,-0.09 -0.7512,-0.1712 -1.2287,-0.2387 -0.4763,-0.067 -0.8863,-0.1025 -1.2275,-0.1025 -3.52,0 -6.1088,1.5612 -7.7688,4.685 -1.6587,3.125 -2.4875,8.095 -2.4875,14.91 0,6.3612 0.78,11.07 2.3338,14.125 1.5562,3.0562 3.9587,4.585 7.2087,4.585 0.9313,0 1.8675,-0.1475 2.8125,-0.4425 0.9413,-0.2963 1.98,-0.775 3.1163,-1.4338 l 0,6.5438 z"
         inkscape:connector-curvature="0" />
      <path
         id="path3180"
         style="fill:#ffffff;fill-opacity:1;fill-rule:nonzero;stroke:none"
         d="m 447.6899,593.825 0,-49.7538 19.9012,0 0,5.9975 -13.1887,0 0,14.79 12.0662,0 0,5.9275 -12.0662,0 0,16.8375 13.1887,0 0,6.2013 -19.9012,0 z"
         inkscape:connector-curvature="0" />
      <path
         id="path3184"
         style="fill:#ffffff;fill-opacity:1;fill-rule:nonzero;stroke:none"
         d="m 541.3361,565.915 2.4887,0 c 2.9988,0 5.1338,-0.6188 6.4063,-1.8575 1.2712,-1.2375 1.9087,-3.3213 1.9087,-6.2538 0,-2.7937 -0.6762,-4.805 -2.0275,-6.0312 -1.3512,-1.2263 -3.6075,-1.84 -6.765,-1.84 l -2.0112,0 0,15.9825 z m -6.7125,27.91 0,-49.7538 8.1787,0 c 3.0425,0 5.4013,0.2088 7.07,0.6288 1.6713,0.4187 3.13,1.1387 4.3813,2.1587 1.43,1.155 2.555,2.7125 3.3725,4.6738 0.8175,1.9612 1.2262,4.1312 1.2262,6.5087 0,4.5113 -1.3225,7.9513 -3.97,10.32 -2.6462,2.3675 -6.515,3.5513 -11.605,3.5513 l -1.225,0 -0.7162,0 0,21.9125 -6.7125,0 z"
         inkscape:connector-curvature="0" />
      <path
         id="path3188"
         style="fill:#ffffff;fill-opacity:1;fill-rule:nonzero;stroke:none"
         d="m 593.7486,568.845 c 0,7.0887 0.5737,12.07 1.7212,14.9437 1.1475,2.875 3.06,4.31 5.7413,4.31 2.6587,0 4.5312,-1.3662 5.6212,-4.1062 1.0925,-2.735 1.6375,-7.7863 1.6375,-15.1475 0,-7.1788 -0.55,-12.17 -1.6525,-14.9763 -1.1012,-2.805 -2.9937,-4.2087 -5.6737,-4.2087 -2.6588,0 -4.5675,1.4187 -5.7263,4.26 -0.5225,1.385 -0.93,3.3512 -1.2262,5.895 -0.295,2.5437 -0.4425,5.555 -0.4425,9.03 m -6.7813,0.1375 c 0,-9.0875 1.1063,-15.62 3.3225,-19.595 2.215,-3.975 5.8325,-5.9638 10.8538,-5.9638 4.9525,0 8.5412,1.9763 10.7687,5.93 2.2263,3.9513 3.3388,10.4963 3.3388,19.6288 0,9.1112 -1.095,15.6312 -3.2888,19.56 -2.1925,3.9312 -5.7975,5.8962 -10.8187,5.8962 -5.0213,0 -8.6388,-1.97 -10.8538,-5.915 -2.2162,-3.9387 -3.3225,-10.455 -3.3225,-19.5412"
         inkscape:connector-curvature="0" />
      <path
         id="path3192"
         style="fill:#ffffff;fill-opacity:1;fill-rule:nonzero;stroke:none"
         d="m 652.667,565.7105 2.08,0 c 2.725,0 4.65,-0.635 5.7762,-1.9075 1.1238,-1.2738 1.6863,-3.5225 1.6863,-6.7488 0,-2.6337 -0.545,-4.4812 -1.6363,-5.5362 -1.09,-1.0588 -3.1012,-1.5863 -6.0312,-1.5863 l -1.875,0 0,15.7788 z m 0,3.8162 0,24.2975 -6.7125,0 0,-49.7537 8.11,0 c 5.3837,0 9.2175,0.995 11.5025,2.9825 2.2825,1.9875 3.4237,5.3212 3.4237,10.0012 0,3.6588 -0.7775,6.5138 -2.3337,8.57 -1.5588,2.0575 -3.9025,3.2888 -7.0375,3.6988 l 11.8262,24.5012 -7.1612,-0.014 -11.3838,-24.2975 -0.2337,0.014 z"
         inkscape:connector-curvature="0" />
      <path
         id="path3196"
         style="fill:#ffffff;fill-opacity:1;fill-rule:nonzero;stroke:none"
         d="m 705.0107,593.825 0,-43.5525 -9.235,0 0,-6.2013 25.2175,0 0,6.2013 -9.235,0 0,43.5525 -6.7475,0 z"
         inkscape:connector-curvature="0" />
      <path
         id="path3200"
         style="fill:#ffffff;fill-opacity:1;fill-rule:nonzero;stroke:none"
         d="m 760.2845,556.9878 -4.505,21.4663 8.9737,0 -4.4687,-21.4663 z m -14.825,36.8363 11.6562,-49.7538 6.3025,0 11.6563,49.7538 -6.7563,-0.01 -2.3962,-9.7775 -11.3475,0.01 -2.325,9.7787 -6.79,0 z"
         inkscape:connector-curvature="0" />
      <path
         id="path3204"
         style="fill:#ffffff;fill-opacity:1;fill-rule:nonzero;stroke:none"
         d="m 803.3251,593.825 0,-49.7538 6.7125,0 0,43.5525 14.3825,0 0,6.2013 -21.095,0 z"
         inkscape:connector-curvature="0" />
    </g>
  </g>
</svg>
